<svg xmlns="http://www.w3.org/2000/svg" width="85.41" height="73.101" viewBox="0 0 85.41 73.101">
                    <g id="Group_3" data-name="Group 3" transform="translate(-915 -42.79)">
                      <g id="Group_2" data-name="Group 2" transform="translate(915 42.79)">
                        <g id="Group_1" data-name="Group 1">
                          <path id="Path_1" data-name="Path 1" d="M223.438,213.046v-.892a2.005,2.005,0,0,0,2.022-2.022V174.148a4.846,4.846,0,0,0-.892-2.736h5l17.962,25.634,16.3-23.315a3.965,3.965,0,0,0,.714-2.32h6.007v.892a1.879,1.879,0,0,0-1.9,1.9V210.25a1.916,1.916,0,0,0,1.9,1.9v.892h-7.851v-.892a1.9,1.9,0,0,0,1.844-1.9V174.326l-18.676,26.705a1.493,1.493,0,0,0-.238.416l-19.271-27.478v36.162a2.032,2.032,0,0,0,1.963,2.022v.892Z" transform="translate(-223.438 -171.41)" fill="#222221"></path>
                          <path id="Path_2" data-name="Path 2" d="M492.78,171.412c3.866,0,7.018,1.189,8.565,5.055a9.948,9.948,0,0,1-.535,8.03c-1.011,1.963-2.914,2.914-4.461,3.807,5.293,3.033,10.409,5.115,11.42,11.6,1.011,5.948-2.32,10.527-7.435,12.252-2.617.892-3.152.833-16.713.773h-5.948v-.892a1.917,1.917,0,0,0,1.9-1.9c0-36.935.892-37.768-1.9-37.768v-.952ZM483.621,211.8c6.364,0,7.791.059,10.23,0,6.3,0,9.873-6.007,9.159-12.252-1.249-11.3-9.516-6.186-18.379-23.969l-1.011-2.141v1.725C483.5,178.371,483.621,187.947,483.621,211.8Zm.416-39.255c2.26,5.531,6.3,11.42,11.122,14.929,4.342-3.39,5.531-10.528.535-14.334-1.9-1.487-5-1.19-11.9-1.19C483.859,172.126,483.978,172.364,484.037,172.542Z" transform="translate(-422.539 -171.41)" fill="#222221"></path>
                          <path id="Path_3" data-name="Path 3" d="M324.3,244.352a51.641,51.641,0,0,1,14.275-16.225c5.433-3.948,11.752-7.215,12.714-14.263a32.34,32.34,0,0,0,.2-5.062c.034-9.687.036-27.551.019-37.394l4.108,0c0,7.19.014,25.214.07,32.142l.013,5.357a33.254,33.254,0,0,1-.3,5.61c-1.4,8.9-8.359,12.216-15.187,16.064a51.17,51.17,0,0,0-8.448,6.15,85.239,85.239,0,0,0-7.252,7.777l-.214-.154Z" transform="translate(-302.428 -171.404)" fill="#222221"></path>
                        </g>
                      </g>
                    </g>
                  </svg>